<svg xmlns="http://www.w3.org/2000/svg" viewBox="0 0 512 512">
  <!-- Hellblauer Hintergrund -->
  <rect width="512" height="512" fill="#3b82f6" rx="64"/>

  <!-- Weißes Haus (größer) -->
  <g fill="#ffffff">
    <!-- Dach -->
    <path d="M256 80 L100 210 L100 220 L120 220 L120 210 L256 100 L392 210 L392 220 L412 220 L412 210 Z"/>

    <!-- Dachdetail (Firstziegel) -->
    <rect x="235" y="75" width="42" height="14" rx="2"/>

    <!-- Haus-Körper -->
    <rect x="120" y="210" width="272" height="240" rx="8"/>

    <!-- Tür mit Türknauf -->
    <rect x="216" y="320" width="80" height="130" fill="#3b82f6" rx="6"/>
    <circle cx="275" cy="385" r="5" fill="#ffffff"/>

    <!-- Fenster oben links -->
    <g transform="translate(145, 240)">
      <rect width="70" height="65" fill="#3b82f6" rx="6"/>
      <line x1="35" y1="0" x2="35" y2="65" stroke="#ffffff" stroke-width="2.5"/>
      <line x1="0" y1="32.5" x2="70" y2="32.5" stroke="#ffffff" stroke-width="2.5"/>
    </g>

    <!-- Fenster oben rechts -->
    <g transform="translate(297, 240)">
      <rect width="70" height="65" fill="#3b82f6" rx="6"/>
      <line x1="35" y1="0" x2="35" y2="65" stroke="#ffffff" stroke-width="2.5"/>
      <line x1="0" y1="32.5" x2="70" y2="32.5" stroke="#ffffff" stroke-width="2.5"/>
    </g>
  </g>
</svg>